HIERARCHY
ROOT Hips
{
	OFFSET -3.958830 18.904000 13.208200
	CHANNELS 6 Xposition Yposition Zposition Zrotation Yrotation Xrotation 
	JOINT LHipJoint
	{
		OFFSET 0.000000 0.000000 0.000000
		CHANNELS 3 Zrotation Yrotation Xrotation
		JOINT LeftUpLeg
		{
			OFFSET 1.800000 -1.400000 0.085000
			CHANNELS 3 Zrotation Yrotation Xrotation
			JOINT LeftLeg
			{
				OFFSET 2.215000 -6.000000 0.000000
				CHANNELS 3 Zrotation Yrotation Xrotation
				JOINT LeftFoot
				{
					OFFSET 2.500000 -6.900000 0.000000
					CHANNELS 3 Zrotation Yrotation Xrotation
					JOINT LeftToeBase
					{
						OFFSET 0.200000 -0.500000 1.950000
						CHANNELS 3 Zrotation Yrotation Xrotation
						End Site
						{
							OFFSET 0.000000 0.000000 0.000000
						}
					}
				}
			}
		}
	}
	JOINT RHipJoint
	{
		OFFSET 0.000000 0.000000 0.000000
		CHANNELS 3 Zrotation Yrotation Xrotation
		JOINT RightUpLeg
		{
			OFFSET -1.800000 -1.400000 0.085000
			CHANNELS 3 Zrotation Yrotation Xrotation
			JOINT RightLeg
			{
				OFFSET -2.215000 -6.000000 0.000000
				CHANNELS 3 Zrotation Yrotation Xrotation
				JOINT RightFoot
				{
					OFFSET -2.500000 -6.900000 0.000000
					CHANNELS 3 Zrotation Yrotation Xrotation
					JOINT RightToeBase
					{
						OFFSET -0.200000 -0.500000 1.950000
						CHANNELS 3 Zrotation Yrotation Xrotation
						End Site
						{
							OFFSET 0.000000 0.000000 0.000000
						}
					}
				}
			}
		}
	}
	JOINT LowerBack
	{
		OFFSET 0.000000 0.000000 0.000000
		CHANNELS 3 Zrotation Yrotation Xrotation
		JOINT Spine
		{
			OFFSET -0.087000 1.940000 -0.288900
			CHANNELS 3 Zrotation Yrotation Xrotation
			JOINT Spine1
			{
				OFFSET 0.000000 1.950000 0.060000
				CHANNELS 3 Zrotation Yrotation Xrotation
				JOINT Neck
				{
					OFFSET 0.000000 0.000000 0.000000
					CHANNELS 3 Zrotation Yrotation Xrotation
					JOINT Neck1
					{
						OFFSET 0.000000 1.600000 0.340000
						CHANNELS 3 Zrotation Yrotation Xrotation
						JOINT Head
						{
							OFFSET 0.000000 1.667000 -0.240000
							CHANNELS 3 Zrotation Yrotation Xrotation
							End Site
							{
								OFFSET 0.000000 0.000000 0.000000
							}
						}
					}
				}
				JOINT LeftShoulder
				{
					OFFSET 0.000000 0.000000 0.000000
					CHANNELS 3 Zrotation Yrotation Xrotation
					JOINT LeftArm
					{
						OFFSET 2.700000 1.550000 -0.730000
						CHANNELS 3 Zrotation Yrotation Xrotation
						JOINT LeftForeArm
						{
							OFFSET 5.450000 0.000000 0.000000
							CHANNELS 3 Zrotation Yrotation Xrotation
							JOINT LeftHand
							{
								OFFSET 3.450000 0.000000 0.000000
								CHANNELS 3 Zrotation Yrotation Xrotation
								JOINT LeftHandIndex1
								{
									OFFSET 0.750000 0.000000 0.000000
									CHANNELS 3 Zrotation Yrotation Xrotation
									End Site
									{
										OFFSET 0.000000 0.000000 0.000000
									}
								}
							}
						}
					}
				}
				JOINT RightShoulder
				{
					OFFSET 0.000000 0.000000 0.000000
					CHANNELS 3 Zrotation Yrotation Xrotation
					JOINT RightArm
					{
						OFFSET -2.700000 1.550000 -0.730000
						CHANNELS 3 Zrotation Yrotation Xrotation
						JOINT RightForeArm
						{
							OFFSET -5.450000 0.000000 0.000000
							CHANNELS 3 Zrotation Yrotation Xrotation
							JOINT RightHand
							{
								OFFSET -3.450000 0.000000 0.000000
								CHANNELS 3 Zrotation Yrotation Xrotation
								JOINT RightHandIndex1
								{
									OFFSET -0.750000 0.000000 0.000000
									CHANNELS 3 Zrotation Yrotation Xrotation
									End Site
									{
										OFFSET 0.000000 0.000000 0.000000
									}
								}
							}
						}
					}
				}
			}
		}
	}
}
MOTION
Frames: 13
Frame Time: 0.016667
-0.567410 16.831300 -3.860530 -1.385748 17.492515 -4.006875 -14.897281 14.305416 3.155296 10.918783 0.293664 -20.487058 -3.982073 5.704891 17.305868 0.060834 3.256316 3.234358 0.863530 0.507670 0.773360 18.040648 -11.741227 2.702027 -8.976029 2.609396 -4.308071 3.621715 -5.290247 21.893031 -0.755680 -3.712591 2.972629 -0.040440 -0.621010 0.176310 -4.350885 -1.518358 -7.679934 28.467019 -8.049751 33.054769 -17.820372 0.965292 -5.828728 9.317176 -14.485746 -16.478992 -32.324798 15.391423 69.974633 -0.540110 -6.508670 -27.198310 -44.821715 -6.070506 0.624703 -48.439554 24.275289 -10.705610 -7.848966 -2.123467 -1.630833 -2.464201 2.836694 0.838280 -0.801700 0.633320 0.133300 24.626527 25.090956 12.832393 45.498042 20.758627 -12.710221 -107.428907 50.762766 -74.820266 2.690426 -0.509121 0.338710 -0.078660 -0.460220 -0.040210 
-0.587240 16.835250 -3.913570 0.014099 19.137367 -4.033530 -15.011769 14.414733 3.230836 8.317823 -0.087355 -17.378403 -2.690479 4.287769 10.891187 0.073967 2.573557 3.553611 0.811210 0.471430 0.730350 17.894105 -11.717278 2.652231 -10.579005 3.067450 -5.465679 4.825289 -5.807385 24.342560 -0.729728 -3.948181 2.902346 -0.078780 -0.583370 0.170610 -4.059219 -1.919872 -7.775967 23.731353 -7.944400 36.078687 -13.972238 0.552026 -4.197658 8.820287 -14.542284 -17.455583 -31.398184 13.877388 66.751834 1.121820 -6.201950 -27.054070 -42.146425 -8.071840 2.581072 -51.076236 21.897291 -13.121183 -11.004153 -6.336191 -1.811182 -2.460843 2.956074 0.791360 -0.772730 0.603850 0.133200 23.726190 28.017679 13.307286 42.584443 23.156602 -14.230518 -108.001643 46.213199 -71.460767 2.730726 -0.748921 0.343420 -0.093270 -0.455530 -0.020730 
-0.612250 16.839780 -3.974490 0.491950 20.278458 -3.575953 -15.130698 14.463350 3.348515 7.366146 -0.198227 -17.664919 -2.512083 3.962324 8.733737 0.097559 2.434810 3.635890 0.702220 0.357360 0.667060 17.780470 -11.589293 2.621055 -10.743654 3.428990 -6.993836 5.259675 -6.032559 25.925274 -0.655701 -4.053518 2.899545 -0.146410 -0.517580 0.173000 -3.757656 -2.331373 -7.920252 19.988025 -7.234367 39.305361 -10.432401 1.178081 -3.919252 8.035802 -13.696608 -17.231657 -27.321675 10.456624 61.790402 1.285440 -5.125190 -24.908980 -37.240662 -8.388724 3.804782 -54.072370 19.400686 -15.573646 -15.279430 -11.033523 -1.849868 -2.579920 3.016311 0.735570 -0.690910 0.535750 0.116260 20.707973 28.827472 12.912401 41.205502 24.399928 -15.506944 -106.333406 43.805006 -68.045280 2.726251 -0.873262 0.313010 -0.125110 -0.421070 -0.030020 
-0.639760 16.861720 -4.070300 0.720098 20.518738 -3.173450 -15.247754 14.589700 3.376320 6.933133 -0.281636 -20.278253 -2.363697 4.184195 10.925582 0.109099 2.482042 3.623757 0.620830 0.258340 0.632680 17.677944 -11.414435 2.608929 -10.695524 4.034545 -8.913039 5.461367 -6.125824 27.550668 -0.597769 -4.142021 2.880617 -0.205640 -0.457130 0.213890 -3.419863 -2.863319 -7.998230 16.358125 -5.840973 43.332283 -7.021541 2.680440 -3.552721 7.242873 -11.596313 -16.479347 -21.979764 6.193925 55.773664 0.702370 -4.675080 -23.511520 -31.721863 -9.488416 4.808687 -56.348685 16.337098 -17.280873 -22.334430 -13.259791 -1.864189 -2.750051 3.079290 0.677920 -0.602780 0.483320 0.109320 16.996444 29.139300 11.978305 38.806599 24.675084 -17.072531 -105.176246 40.514981 -64.512120 2.697681 -1.057933 0.301120 -0.171680 -0.399710 -0.037700 
-0.664520 16.884140 -4.161650 -0.100547 20.103373 -2.668579 -15.344767 14.612873 3.434703 7.918395 -0.176115 -24.624667 -2.690805 4.874163 14.993649 0.127681 2.794446 3.483566 0.515340 0.155540 0.595790 17.631801 -11.167627 2.633108 -9.443789 4.633187 -10.611953 5.423421 -5.960835 28.094385 -0.511212 -4.064995 2.929840 -0.256770 -0.401850 0.205880 -3.141732 -3.298657 -8.067043 14.278600 -4.306236 46.641108 -4.410987 4.836986 -3.360819 6.372878 -9.205890 -15.985837 -16.997446 2.311897 50.012673 0.712540 -4.726260 -22.224290 -26.728964 -10.826604 5.693266 -56.968196 13.995510 -18.245618 -31.155279 -14.205811 -1.773184 -2.912120 3.120003 0.615310 -0.523390 0.417640 0.069860 13.786610 29.147703 11.283969 36.111646 23.478897 -18.811593 -105.040562 37.120650 -61.525318 2.685581 -1.199546 0.266520 -0.185420 -0.362570 -0.051780 
-0.690550 16.927180 -4.242140 -1.546426 18.598220 -3.278214 -15.474416 14.737109 3.476896 9.850058 0.680477 -27.786900 -2.671901 5.673885 18.560280 0.222467 3.277848 3.273432 0.474230 0.111470 0.590510 17.577625 -10.801836 2.626530 -7.775429 5.107573 -10.549954 5.324654 -5.563264 27.276145 -0.487611 -3.853132 3.019500 -0.309020 -0.416600 0.218710 -2.766785 -4.053536 -8.122488 12.282970 -2.584673 51.481404 -2.406633 7.677036 -3.716222 5.920274 -7.826880 -16.429659 -14.600247 -0.178726 46.769392 2.118230 -5.450920 -23.786760 -21.651312 -11.649621 6.359408 -57.561749 12.751194 -19.496803 -40.546122 -14.862688 -1.669112 -2.949956 3.218832 0.608370 -0.524360 0.424790 0.055550 9.817859 29.750140 11.211102 33.873132 21.459195 -21.317347 -104.230189 34.130613 -58.050579 2.718567 -1.324101 0.280600 -0.226730 -0.369950 -0.054960 
-0.717360 16.962540 -4.293900 -2.626651 17.039454 -3.964279 -15.657512 14.960605 3.543955 11.550112 1.740775 -30.428470 -2.018918 6.392879 21.750947 0.306091 3.802500 3.049643 0.421490 0.054660 0.571030 17.484551 -10.341505 2.558050 -6.518895 5.124491 -9.323652 5.431311 -5.141444 25.078303 -0.451639 -3.558262 3.150623 -0.362350 -0.442970 0.204900 -2.269068 -5.183328 -8.203822 9.084217 -0.088565 56.348146 0.066224 11.070910 -5.089853 5.633170 -7.289225 -17.319726 -14.047435 -1.614144 44.915988 4.030310 -6.105910 -25.285480 -17.499606 -11.832703 7.064231 -57.390261 13.199570 -20.437780 -50.254795 -15.889872 -1.198300 -2.924619 3.303091 0.627300 -0.543710 0.430290 0.033870 6.785204 30.485862 11.239232 31.780852 18.585091 -23.161254 -103.581362 31.469969 -54.294348 2.747078 -1.420188 0.274300 -0.257710 -0.368350 -0.069150 
-0.727590 16.968190 -4.324590 -3.754389 15.610042 -3.874798 -15.871369 15.145630 3.666389 12.869382 2.695518 -33.377569 -0.874285 6.893909 24.251953 0.401189 4.268861 2.871049 0.374880 -0.008180 0.574480 17.386815 -9.807923 2.464171 -5.492040 5.157531 -8.562925 5.594532 -4.743412 22.876726 -0.414031 -3.265840 3.264548 -0.420530 -0.455160 0.208360 -1.729906 -6.407734 -8.333587 5.954446 2.859052 59.809111 2.950240 14.794530 -7.137861 5.435360 -6.843454 -17.957924 -13.310333 -2.952708 42.590327 4.620790 -6.288060 -25.307610 -13.349676 -10.706283 7.547310 -57.237074 14.502206 -20.398222 -59.792725 -15.403325 -0.862001 -2.880020 3.393597 0.626390 -0.548550 0.434930 0.021220 3.620082 30.112383 11.038072 30.400663 15.689189 -23.804112 -103.343156 28.915214 -50.649394 2.780328 -1.538612 0.275320 -0.294310 -0.379050 -0.076070 
-0.729290 16.938220 -4.333670 -4.668732 15.145885 -2.946246 -16.047465 15.208590 3.829505 13.448669 3.220835 -36.429406 0.517360 7.033484 25.642441 0.473607 4.502399 2.771262 0.344300 -0.033410 0.558660 17.313105 -9.372894 2.376414 -5.162704 5.249456 -8.491692 6.131190 -4.518925 21.114487 -0.369087 -3.066813 3.347172 -0.457740 -0.457390 0.219750 -1.314824 -7.310765 -8.474040 3.608194 5.411321 61.302755 5.487121 17.854436 -9.419694 5.113573 -6.446450 -18.305819 -12.571675 -4.246888 40.876582 4.825930 -6.837290 -24.049800 -10.094187 -9.386024 7.487997 -56.188783 15.164349 -18.965962 -65.192538 -10.825328 -2.711385 -2.857277 3.462537 0.588580 -0.531770 0.427530 0.013470 1.510932 29.311397 11.122652 29.452007 12.321527 -23.832030 -103.608877 27.533640 -48.321786 2.800962 -1.641108 0.301540 -0.336990 -0.383620 -0.064600 
-0.712740 16.882390 -4.343750 -5.356350 15.585809 -2.559915 -16.137783 15.188525 3.981242 13.762580 3.378079 -38.555248 1.286269 7.135432 26.825856 0.541480 4.691640 2.705814 0.328810 -0.030560 0.538380 17.283314 -9.143054 2.280959 -5.689076 5.158839 -7.891489 6.713973 -4.482824 19.920275 -0.348493 -3.034178 3.373052 -0.467060 -0.443670 0.214530 -1.120654 -7.767337 -8.554399 2.722564 6.399721 62.763377 6.513364 19.611778 -10.812620 4.628262 -6.101453 -18.764120 -11.572348 -4.973693 39.154316 5.148130 -7.149870 -21.391780 -6.722995 -8.624562 7.734125 -54.854372 16.252130 -18.151414 -70.353653 -7.466213 -4.528987 -2.802712 3.517811 0.537460 -0.507340 0.413770 0.026680 -0.807255 28.774836 11.272210 28.706964 10.291492 -24.052734 -103.896737 25.510537 -45.854712 2.836026 -1.757973 0.318600 -0.357350 -0.400820 -0.042960 
-0.673740 16.815070 -4.340540 -5.819123 16.126030 -2.572795 -16.160563 15.143835 4.093475 14.000516 3.383207 -39.734185 1.516025 7.263458 27.941276 0.569373 4.906337 2.651277 0.300800 -0.052480 0.507010 17.284340 -9.074666 2.198866 -6.541233 4.945352 -6.933716 6.913816 -4.474990 18.974187 -0.337075 -3.063399 3.377386 -0.471500 -0.400470 0.206140 -1.090778 -7.909623 -8.585198 2.924913 6.226244 64.259698 6.066631 20.281033 -12.066865 4.338856 -6.171121 -18.776235 -11.420514 -5.247918 37.726128 5.798570 -7.517450 -20.266680 -5.241651 -7.861885 7.467812 -52.447091 16.799932 -17.109937 -73.044549 -3.438298 -7.152841 -2.802345 3.506423 0.514410 -0.481010 0.389660 0.039120 -1.832395 28.322834 11.394683 28.075400 9.282837 -23.903497 -104.902227 25.237165 -46.082189 2.831879 -1.787372 0.301410 -0.339020 -0.394600 -0.027180 
-0.611360 16.760200 -4.337560 -5.730818 16.035601 -2.679017 -16.172001 15.138791 4.188472 14.125721 3.223104 -40.276434 1.214513 7.603567 29.670297 0.605642 5.197754 2.543996 0.298040 -0.044980 0.478900 17.279219 -9.049186 2.088475 -8.047989 4.892595 -6.321446 6.940172 -4.490949 18.734167 -0.329531 -3.118797 3.366069 -0.468140 -0.393880 0.201070 -1.072440 -8.044691 -8.590508 2.594329 6.073512 65.593479 5.901375 19.995626 -12.753873 4.514700 -7.016640 -18.652531 -12.790606 -4.599864 36.869086 6.232310 -7.265200 -20.849390 -5.274593 -7.162142 7.290626 -51.991696 18.113330 -17.568074 -73.137686 -1.134293 -9.033968 -2.805386 3.506450 0.503250 -0.481620 0.376540 0.043710 -2.156579 28.497503 11.178049 26.422304 10.206935 -23.519395 -104.856455 23.551019 -44.086316 2.833901 -1.839767 0.305940 -0.343910 -0.387720 -0.017020 
-0.527090 16.720360 -4.350110 -5.600590 15.937888 -2.352970 -16.130643 14.949806 4.375935 14.206248 2.742837 -41.305610 0.240740 8.199172 31.866962 0.698515 5.571073 2.437958 0.299520 -0.028560 0.462810 17.319969 -9.094994 2.008111 -9.936555 5.395094 -7.051414 7.483044 -4.674243 19.717321 -0.336220 -3.204469 3.349277 -0.477910 -0.392650 0.178470 -1.209472 -7.770235 -8.621967 3.396639 4.861920 66.290941 4.737068 18.606624 -13.094471 5.029474 -8.072325 -18.736225 -14.867302 -3.823207 36.882353 6.990990 -7.164110 -22.115460 -6.558063 -7.449204 7.454217 -53.638351 19.205682 -19.223165 -70.267460 -0.849910 -9.473475 -2.803388 3.462647 0.502810 -0.505620 0.387550 0.071230 -1.749681 29.319001 10.960039 24.877092 11.707209 -23.141797 -105.246536 22.665123 -43.537253 2.847529 -1.844024 0.312610 -0.325830 -0.413740 0.006800 
